{
    "asset" : {
        "generator" : "Khronos glTF Blender I/O v1.2.75",
        "version" : "2.0"
    },
    "scene" : 0,
    "scenes" : [
        {
            "name" : "Scene",
            "nodes" : [
                0
            ]
        }
    ],
    "nodes" : [
        {
            "mesh" : 0,
            "name" : "node_MeshObject1381653504-PolyPaper2",
            "scale" : [
                6.840959548950195,
                5.325129985809326,
                7.722674369812012
            ],
            "translation" : [
                -2.7734012603759766,
                20.305418014526367,
                0
            ]
        }
    ],
    "materials" : [
        {
            "emissiveFactor" : [
                0,
                0,
                0
            ],
            "name" : "BlocksPaper.003",
            "pbrMetallicRoughness" : {
                "metallicFactor" : 0,
                "roughnessFactor" : 0.6000000238418579
            }
        }
    ],
    "meshes" : [
        {
            "name" : "mesh_m0-PolyPaper2_-23690",
            "primitives" : [
                {
                    "attributes" : {
                        "POSITION" : 0,
                        "NORMAL" : 1,
                        "COLOR_0" : 2
                    },
                    "indices" : 3,
                    "material" : 0
                }
            ]
        }
    ],
    "accessors" : [
        {
            "bufferView" : 0,
            "componentType" : 5126,
            "count" : 6318,
            "max" : [
                3.0283420085906982,
                -2.6243581771850586,
                1.6673920154571533
            ],
            "min" : [
                2.074963331222534,
                -4.032796382904053,
                0.5690021514892578
            ],
            "type" : "VEC3"
        },
        {
            "bufferView" : 1,
            "componentType" : 5126,
            "count" : 6318,
            "type" : "VEC3"
        },
        {
            "bufferView" : 2,
            "componentType" : 5126,
            "count" : 6318,
            "type" : "VEC4"
        },
        {
            "bufferView" : 3,
            "componentType" : 5123,
            "count" : 6318,
            "type" : "SCALAR"
        }
    ],
    "bufferViews" : [
        {
            "buffer" : 0,
            "byteLength" : 75816,
            "byteOffset" : 0
        },
        {
            "buffer" : 0,
            "byteLength" : 75816,
            "byteOffset" : 75816
        },
        {
            "buffer" : 0,
            "byteLength" : 101088,
            "byteOffset" : 151632
        },
        {
            "buffer" : 0,
            "byteLength" : 12636,
            "byteOffset" : 252720
        }
    ],
    "buffers" : [
        {
            "byteLength" : 265356,
            "uri" : "data:application/octet-stream;base64,"
        }
    ]
}
