{
    "asset" : {
        "generator" : "Khronos glTF Blender I/O v1.2.75",
        "version" : "2.0"
    },
    "scene" : 0,
    "scenes" : [
        {
            "name" : "Scene",
            "nodes" : [
                4
            ]
        }
    ],
    "nodes" : [
        {
            "mesh" : 0,
            "name" : "node_MeshObject-1614373248-PolyGlass24"
        },
        {
            "mesh" : 1,
            "name" : "node_MeshObject850170880-PolyGlass24"
        },
        {
            "children" : [
                0,
                1
            ],
            "name" : "Node_4",
            "translation" : [
                -0.6590275764465332,
                -1.263487458229065,
                -0.33082664012908936
            ]
        },
        {
            "children" : [
                2
            ],
            "name" : "Node_3",
            "translation" : [
                0.6590275764465332,
                1.263487458229065,
                0.33082664012908936
            ]
        },
        {
            "children" : [
                3
            ],
            "name" : "Node_2"
        }
    ],
    "materials" : [
        {
            "alphaMode" : "BLEND",
            "emissiveFactor" : [
                0,
                0,
                0
            ],
            "name" : "BlocksGlass",
            "pbrMetallicRoughness" : {
                "metallicFactor" : 1,
                "roughnessFactor" : 0.4000000059604645
            }
        }
    ],
    "meshes" : [
        {
            "name" : "mesh_m0-PolyGlass24_-25290",
            "primitives" : [
                {
                    "attributes" : {
                        "POSITION" : 0,
                        "NORMAL" : 1,
                        "COLOR_0" : 2
                    },
                    "indices" : 3,
                    "material" : 0
                }
            ]
        },
        {
            "name" : "mesh_m1-PolyGlass24_-25288",
            "primitives" : [
                {
                    "attributes" : {
                        "POSITION" : 4,
                        "NORMAL" : 5,
                        "COLOR_0" : 6
                    },
                    "indices" : 7,
                    "material" : 0
                }
            ]
        }
    ],
    "accessors" : [
        {
            "bufferView" : 0,
            "componentType" : 5126,
            "count" : 8064,
            "max" : [
                0.6891381740570068,
                1.4762314558029175,
                0.4052151143550873
            ],
            "min" : [
                0.46367767453193665,
                0.6974723935127258,
                0.16188880801200867
            ],
            "type" : "VEC3"
        },
        {
            "bufferView" : 1,
            "componentType" : 5126,
            "count" : 8064,
            "type" : "VEC3"
        },
        {
            "bufferView" : 2,
            "componentType" : 5126,
            "count" : 8064,
            "type" : "VEC4"
        },
        {
            "bufferView" : 3,
            "componentType" : 5123,
            "count" : 8064,
            "type" : "SCALAR"
        },
        {
            "bufferView" : 4,
            "componentType" : 5126,
            "count" : 13824,
            "max" : [
                0.867959201335907,
                1.7838735580444336,
                0.49368736147880554
            ],
            "min" : [
                0.4597434997558594,
                0.865265429019928,
                0.22376811504364014
            ],
            "type" : "VEC3"
        },
        {
            "bufferView" : 5,
            "componentType" : 5126,
            "count" : 13824,
            "type" : "VEC3"
        },
        {
            "bufferView" : 6,
            "componentType" : 5126,
            "count" : 13824,
            "type" : "VEC4"
        },
        {
            "bufferView" : 7,
            "componentType" : 5123,
            "count" : 13824,
            "type" : "SCALAR"
        }
    ],
    "bufferViews" : [
        {
            "buffer" : 0,
            "byteLength" : 96768,
            "byteOffset" : 0
        },
        {
            "buffer" : 0,
            "byteLength" : 96768,
            "byteOffset" : 96768
        },
        {
            "buffer" : 0,
            "byteLength" : 129024,
            "byteOffset" : 193536
        },
        {
            "buffer" : 0,
            "byteLength" : 16128,
            "byteOffset" : 322560
        },
        {
            "buffer" : 0,
            "byteLength" : 165888,
            "byteOffset" : 338688
        },
        {
            "buffer" : 0,
            "byteLength" : 165888,
            "byteOffset" : 504576
        },
        {
            "buffer" : 0,
            "byteLength" : 221184,
            "byteOffset" : 670464
        },
        {
            "buffer" : 0,
            "byteLength" : 27648,
            "byteOffset" : 891648
        }
    ],
    "buffers" : [
        {
            "byteLength" : 919296,
            "uri" : "data:application/octet-stream;base64,"
        }
    ]
}
