{
    "asset" : {
        "generator" : "Khronos glTF Blender I/O v1.2.75",
        "version" : "2.0"
    },
    "scene" : 0,
    "scenes" : [
        {
            "name" : "Scene",
            "nodes" : [
                2
            ]
        }
    ],
    "nodes" : [
        {
            "mesh" : 0,
            "name" : "node-0"
        },
        {
            "children" : [
                0
            ],
            "name" : "Node_3.001",
            "translation" : [
                0.014943311922252178,
                -5.877973556518555,
                0.10764636099338531
            ]
        },
        {
            "children" : [
                1
            ],
            "name" : "Node_2.001",
            "translation" : [
                -0.014943311922252178,
                5.877973556518555,
                -0.10764636099338531
            ]
        }
    ],
    "materials" : [
        {
            "doubleSided" : true,
            "emissiveFactor" : [
                0,
                0,
                0
            ],
            "name" : "lambert2SG",
            "pbrMetallicRoughness" : {
                "baseColorTexture" : {
                    "index" : 0,
                    "texCoord" : 0
                },
                "metallicFactor" : 0,
                "roughnessFactor" : 0.9699476361274719
            }
        },
        {
            "doubleSided" : true,
            "emissiveFactor" : [
                0,
                0,
                0
            ],
            "name" : "lambert3SG.001",
            "pbrMetallicRoughness" : {
                "baseColorFactor" : [
                    0.5,
                    0.12999999523162842,
                    0.009999999776482582,
                    1
                ],
                "metallicFactor" : 0,
                "roughnessFactor" : 0.9699476361274719
            }
        },
        {
            "doubleSided" : true,
            "emissiveFactor" : [
                0,
                0,
                0
            ],
            "name" : "lambert4SG",
            "pbrMetallicRoughness" : {
                "baseColorFactor" : [
                    0,
                    0,
                    0,
                    1
                ],
                "metallicFactor" : 0,
                "roughnessFactor" : 0.9699476361274719
            }
        }
    ],
    "meshes" : [
        {
            "name" : "buffer-0-mesh-0.008",
            "primitives" : [
                {
                    "attributes" : {
                        "POSITION" : 0,
                        "NORMAL" : 1,
                        "TEXCOORD_0" : 2
                    },
                    "indices" : 3,
                    "material" : 0
                },
                {
                    "attributes" : {
                        "POSITION" : 4,
                        "NORMAL" : 5,
                        "TEXCOORD_0" : 6
                    },
                    "indices" : 7,
                    "material" : 1
                },
                {
                    "attributes" : {
                        "POSITION" : 8,
                        "NORMAL" : 9,
                        "TEXCOORD_0" : 10
                    },
                    "indices" : 11,
                    "material" : 2
                }
            ]
        }
    ],
    "textures" : [
        {
            "source" : 0
        }
    ],
    "images" : [
        {
            "bufferView" : 4,
            "mimeType" : "image/png",
            "name" : "seahorseTxt"
        }
    ],
    "accessors" : [
        {
            "bufferView" : 0,
            "componentType" : 5126,
            "count" : 1680,
            "max" : [
                0.6888620257377625,
                8.933141708374023,
                1.9297269582748413
            ],
            "min" : [
                -0.6888620257377625,
                2.9558169841766357,
                -2.1436750888824463
            ],
            "type" : "VEC3"
        },
        {
            "bufferView" : 1,
            "componentType" : 5126,
            "count" : 1680,
            "type" : "VEC3"
        },
        {
            "bufferView" : 2,
            "componentType" : 5126,
            "count" : 1680,
            "type" : "VEC2"
        },
        {
            "bufferView" : 3,
            "componentType" : 5123,
            "count" : 1680,
            "type" : "SCALAR"
        },
        {
            "bufferView" : 5,
            "componentType" : 5126,
            "count" : 624,
            "max" : [
                0.28969401121139526,
                8.209688186645508,
                0.8637419939041138
            ],
            "min" : [
                -0.28969401121139526,
                8.034061431884766,
                0.6939399838447571
            ],
            "type" : "VEC3"
        },
        {
            "bufferView" : 6,
            "componentType" : 5126,
            "count" : 624,
            "type" : "VEC3"
        },
        {
            "bufferView" : 7,
            "componentType" : 5126,
            "count" : 624,
            "type" : "VEC2"
        },
        {
            "bufferView" : 8,
            "componentType" : 5123,
            "count" : 624,
            "type" : "SCALAR"
        },
        {
            "bufferView" : 9,
            "componentType" : 5126,
            "count" : 48,
            "max" : [
                0.2874090075492859,
                8.17874813079834,
                0.8514649868011475
            ],
            "min" : [
                -0.2874090075492859,
                8.114492416381836,
                0.797294020652771
            ],
            "type" : "VEC3"
        },
        {
            "bufferView" : 10,
            "componentType" : 5126,
            "count" : 48,
            "type" : "VEC3"
        },
        {
            "bufferView" : 11,
            "componentType" : 5126,
            "count" : 48,
            "type" : "VEC2"
        },
        {
            "bufferView" : 12,
            "componentType" : 5123,
            "count" : 48,
            "type" : "SCALAR"
        }
    ],
    "bufferViews" : [
        {
            "buffer" : 0,
            "byteLength" : 20160,
            "byteOffset" : 0
        },
        {
            "buffer" : 0,
            "byteLength" : 20160,
            "byteOffset" : 20160
        },
        {
            "buffer" : 0,
            "byteLength" : 13440,
            "byteOffset" : 40320
        },
        {
            "buffer" : 0,
            "byteLength" : 3360,
            "byteOffset" : 53760
        },
        {
            "buffer" : 0,
            "byteLength" : 1526146,
            "byteOffset" : 57120
        },
        {
            "buffer" : 0,
            "byteLength" : 7488,
            "byteOffset" : 1583268
        },
        {
            "buffer" : 0,
            "byteLength" : 7488,
            "byteOffset" : 1590756
        },
        {
            "buffer" : 0,
            "byteLength" : 4992,
            "byteOffset" : 1598244
        },
        {
            "buffer" : 0,
            "byteLength" : 1248,
            "byteOffset" : 1603236
        },
        {
            "buffer" : 0,
            "byteLength" : 576,
            "byteOffset" : 1604484
        },
        {
            "buffer" : 0,
            "byteLength" : 576,
            "byteOffset" : 1605060
        },
        {
            "buffer" : 0,
            "byteLength" : 384,
            "byteOffset" : 1605636
        },
        {
            "buffer" : 0,
            "byteLength" : 96,
            "byteOffset" : 1606020
        }
    ],
    "buffers" : [
        {
            "byteLength" : 1606116,
            "uri" : "data:application/octet-stream;base64,"
        }
    ]
}
