{
    "asset" : {
        "generator" : "Khronos glTF Blender I/O v1.2.75",
        "version" : "2.0"
    },
    "scene" : 0,
    "scenes" : [
        {
            "name" : "Scene",
            "nodes" : [
                0
            ]
        }
    ],
    "nodes" : [
        {
            "mesh" : 0,
            "name" : "node_MeshObject-1588386816-PolyPaper13"
        }
    ],
    "materials" : [
        {
            "emissiveFactor" : [
                0,
                0,
                0
            ],
            "name" : "BlocksPaper.004",
            "pbrMetallicRoughness" : {
                "metallicFactor" : 0,
                "roughnessFactor" : 0.6000000238418579
            }
        }
    ],
    "meshes" : [
        {
            "name" : "mesh_m0-PolyPaper13_-150562",
            "primitives" : [
                {
                    "attributes" : {
                        "POSITION" : 0,
                        "NORMAL" : 1,
                        "COLOR_0" : 2
                    },
                    "indices" : 3,
                    "material" : 0
                }
            ]
        }
    ],
    "accessors" : [
        {
            "bufferView" : 0,
            "componentType" : 5126,
            "count" : 1476,
            "max" : [
                0.21664369106292725,
                2.11885142326355,
                -0.5574901103973389
            ],
            "min" : [
                -0.2633562982082367,
                1.5231255292892456,
                -1.0349152088165283
            ],
            "type" : "VEC3"
        },
        {
            "bufferView" : 1,
            "componentType" : 5126,
            "count" : 1476,
            "type" : "VEC3"
        },
        {
            "bufferView" : 2,
            "componentType" : 5126,
            "count" : 1476,
            "type" : "VEC4"
        },
        {
            "bufferView" : 3,
            "componentType" : 5123,
            "count" : 1476,
            "type" : "SCALAR"
        }
    ],
    "bufferViews" : [
        {
            "buffer" : 0,
            "byteLength" : 17712,
            "byteOffset" : 0
        },
        {
            "buffer" : 0,
            "byteLength" : 17712,
            "byteOffset" : 17712
        },
        {
            "buffer" : 0,
            "byteLength" : 23616,
            "byteOffset" : 35424
        },
        {
            "buffer" : 0,
            "byteLength" : 2952,
            "byteOffset" : 59040
        }
    ],
    "buffers" : [
        {
            "byteLength" : 61992,
            "uri" : "data:application/octet-stream;base64,"
        }
    ]
}
