{
    "asset" : {
        "generator" : "Khronos glTF Blender I/O v1.2.75",
        "version" : "2.0"
    },
    "scene" : 0,
    "scenes" : [
        {
            "name" : "Scene",
            "nodes" : [
                3
            ]
        }
    ],
    "nodes" : [
        {
            "mesh" : 0,
            "name" : "node-0",
            "translation" : [
                0,
                0.2888756990432739,
                0
            ]
        },
        {
            "children" : [
                0
            ],
            "name" : "Node_3.001",
            "translation" : [
                0.005170776508748531,
                0.1139434427022934,
                -0.0051710098050534725
            ]
        },
        {
            "children" : [
                1
            ],
            "name" : "Node_2",
            "translation" : [
                -0.005170776508748531,
                -0.1139434427022934,
                0.0051710098050534725
            ]
        },
        {
            "children" : [
                2
            ],
            "name" : "Node_1",
            "translation" : [
                0,
                -0.01565897837281227,
                0
            ]
        }
    ],
    "materials" : [
        {
            "doubleSided" : true,
            "emissiveFactor" : [
                0,
                0,
                0
            ],
            "name" : "lambert2SG",
            "pbrMetallicRoughness" : {
                "baseColorFactor" : [
                    0.8600000143051147,
                    0.11999999731779099,
                    0,
                    1
                ],
                "metallicFactor" : 0,
                "roughnessFactor" : 0.9699476361274719
            }
        },
        {
            "doubleSided" : true,
            "emissiveFactor" : [
                0,
                0,
                0
            ],
            "name" : "lambert3SG",
            "pbrMetallicRoughness" : {
                "baseColorFactor" : [
                    0.10999999940395355,
                    0.14000000059604645,
                    0.07000000029802322,
                    1
                ],
                "metallicFactor" : 0,
                "roughnessFactor" : 0.9699476361274719
            }
        }
    ],
    "meshes" : [
        {
            "name" : "buffer-0-mesh-0.001",
            "primitives" : [
                {
                    "attributes" : {
                        "POSITION" : 0,
                        "NORMAL" : 1,
                        "TEXCOORD_0" : 2
                    },
                    "indices" : 3,
                    "material" : 0
                },
                {
                    "attributes" : {
                        "POSITION" : 4,
                        "NORMAL" : 5,
                        "TEXCOORD_0" : 6
                    },
                    "indices" : 7,
                    "material" : 1
                }
            ]
        }
    ],
    "accessors" : [
        {
            "bufferView" : 0,
            "componentType" : 5126,
            "count" : 2124,
            "max" : [
                1.034201979637146,
                0.487650990486145,
                1.034201979637146
            ],
            "min" : [
                -1.034201979637146,
                -0.7983760237693787,
                -1.034201979637146
            ],
            "type" : "VEC3"
        },
        {
            "bufferView" : 1,
            "componentType" : 5126,
            "count" : 2124,
            "type" : "VEC3"
        },
        {
            "bufferView" : 2,
            "componentType" : 5126,
            "count" : 2124,
            "type" : "VEC2"
        },
        {
            "bufferView" : 3,
            "componentType" : 5123,
            "count" : 2124,
            "type" : "SCALAR"
        },
        {
            "bufferView" : 4,
            "componentType" : 5126,
            "count" : 612,
            "max" : [
                0.12352599948644638,
                0.9777600169181824,
                0.12520800530910492
            ],
            "min" : [
                -0.12352599948644638,
                0.26710501313209534,
                -0.12352599948644638
            ],
            "type" : "VEC3"
        },
        {
            "bufferView" : 5,
            "componentType" : 5126,
            "count" : 612,
            "type" : "VEC3"
        },
        {
            "bufferView" : 6,
            "componentType" : 5126,
            "count" : 612,
            "type" : "VEC2"
        },
        {
            "bufferView" : 7,
            "componentType" : 5123,
            "count" : 612,
            "type" : "SCALAR"
        }
    ],
    "bufferViews" : [
        {
            "buffer" : 0,
            "byteLength" : 25488,
            "byteOffset" : 0
        },
        {
            "buffer" : 0,
            "byteLength" : 25488,
            "byteOffset" : 25488
        },
        {
            "buffer" : 0,
            "byteLength" : 16992,
            "byteOffset" : 50976
        },
        {
            "buffer" : 0,
            "byteLength" : 4248,
            "byteOffset" : 67968
        },
        {
            "buffer" : 0,
            "byteLength" : 7344,
            "byteOffset" : 72216
        },
        {
            "buffer" : 0,
            "byteLength" : 7344,
            "byteOffset" : 79560
        },
        {
            "buffer" : 0,
            "byteLength" : 4896,
            "byteOffset" : 86904
        },
        {
            "buffer" : 0,
            "byteLength" : 1224,
            "byteOffset" : 91800
        }
    ],
    "buffers" : [
        {
            "byteLength" : 93024,
            "uri" : "data:application/octet-stream;base64,"
        }
    ]
}
