{
    "asset" : {
        "generator" : "Khronos glTF Blender I/O v1.2.75",
        "version" : "2.0"
    },
    "scene" : 0,
    "scenes" : [
        {
            "name" : "Scene",
            "nodes" : [
                3
            ]
        }
    ],
    "nodes" : [
        {
            "mesh" : 0,
            "name" : "node_MeshObject-767043968-PolyPaper14"
        },
        {
            "children" : [
                0
            ],
            "name" : "Node_3",
            "translation" : [
                0.8182272911071777,
                -1.1070979833602905,
                0.21123147010803223
            ]
        },
        {
            "children" : [
                1
            ],
            "name" : "Node_2",
            "translation" : [
                -0.8182272911071777,
                1.1070979833602905,
                -0.21123147010803223
            ]
        },
        {
            "children" : [
                2
            ],
            "name" : "Node_1"
        }
    ],
    "materials" : [
        {
            "emissiveFactor" : [
                0,
                0,
                0
            ],
            "name" : "BlocksPaper",
            "pbrMetallicRoughness" : {
                "metallicFactor" : 0,
                "roughnessFactor" : 0.6000000238418579
            }
        }
    ],
    "meshes" : [
        {
            "name" : "mesh_m0-PolyPaper14_-619040",
            "primitives" : [
                {
                    "attributes" : {
                        "POSITION" : 0,
                        "NORMAL" : 1,
                        "COLOR_0" : 2
                    },
                    "indices" : 3,
                    "material" : 0
                }
            ]
        }
    ],
    "accessors" : [
        {
            "bufferView" : 0,
            "componentType" : 5126,
            "count" : 7188,
            "max" : [
                -0.1387304812669754,
                1.7550395727157593,
                1.3601934909820557
            ],
            "min" : [
                -1.4815489053726196,
                0.4749622642993927,
                -1.79535973072052
            ],
            "type" : "VEC3"
        },
        {
            "bufferView" : 1,
            "componentType" : 5126,
            "count" : 7188,
            "type" : "VEC3"
        },
        {
            "bufferView" : 2,
            "componentType" : 5126,
            "count" : 7188,
            "type" : "VEC4"
        },
        {
            "bufferView" : 3,
            "componentType" : 5123,
            "count" : 7188,
            "type" : "SCALAR"
        }
    ],
    "bufferViews" : [
        {
            "buffer" : 0,
            "byteLength" : 86256,
            "byteOffset" : 0
        },
        {
            "buffer" : 0,
            "byteLength" : 86256,
            "byteOffset" : 86256
        },
        {
            "buffer" : 0,
            "byteLength" : 115008,
            "byteOffset" : 172512
        },
        {
            "buffer" : 0,
            "byteLength" : 14376,
            "byteOffset" : 287520
        }
    ],
    "buffers" : [
        {
            "byteLength" : 301896,
            "uri" : "data:application/octet-stream;base64,"
        }
    ]
}
