{
    "asset" : {
        "generator" : "Khronos glTF Blender I/O v1.2.75",
        "version" : "2.0"
    },
    "scene" : 0,
    "scenes" : [
        {
            "name" : "Scene",
            "nodes" : [
                3
            ]
        }
    ],
    "nodes" : [
        {
            "mesh" : 0,
            "name" : "node-0"
        },
        {
            "children" : [
                0
            ],
            "name" : "Node_3",
            "translation" : [
                0.03737935423851013,
                -4.3984599113464355,
                -0.7441635131835938
            ]
        },
        {
            "children" : [
                1
            ],
            "name" : "Node_2",
            "translation" : [
                -0.03737935423851013,
                4.3984599113464355,
                0.7441635131835938
            ]
        },
        {
            "children" : [
                2
            ],
            "name" : "Node_1"
        }
    ],
    "materials" : [
        {
            "doubleSided" : true,
            "emissiveFactor" : [
                0,
                0,
                0
            ],
            "name" : "Dolphin_mat",
            "pbrMetallicRoughness" : {
                "baseColorFactor" : [
                    0.5,
                    0.5,
                    0.5,
                    1
                ],
                "baseColorTexture" : {
                    "index" : 0,
                    "texCoord" : 0
                },
                "metallicFactor" : 0,
                "roughnessFactor" : 0.9699476361274719
            }
        }
    ],
    "meshes" : [
        {
            "name" : "buffer-0-mesh-0.007",
            "primitives" : [
                {
                    "attributes" : {
                        "POSITION" : 0,
                        "NORMAL" : 1,
                        "TEXCOORD_0" : 2
                    },
                    "indices" : 3,
                    "material" : 0
                }
            ]
        }
    ],
    "textures" : [
        {
            "source" : 0
        }
    ],
    "images" : [
        {
            "bufferView" : 4,
            "mimeType" : "image/png",
            "name" : "Dolphin_BaseColor"
        }
    ],
    "accessors" : [
        {
            "bufferView" : 0,
            "componentType" : 5126,
            "count" : 1962,
            "max" : [
                2.813422918319702,
                9.251653671264648,
                8.146235466003418
            ],
            "min" : [
                -2.8135249614715576,
                0,
                -6.69451379776001
            ],
            "type" : "VEC3"
        },
        {
            "bufferView" : 1,
            "componentType" : 5126,
            "count" : 1962,
            "type" : "VEC3"
        },
        {
            "bufferView" : 2,
            "componentType" : 5126,
            "count" : 1962,
            "type" : "VEC2"
        },
        {
            "bufferView" : 3,
            "componentType" : 5123,
            "count" : 1962,
            "type" : "SCALAR"
        }
    ],
    "bufferViews" : [
        {
            "buffer" : 0,
            "byteLength" : 23544,
            "byteOffset" : 0
        },
        {
            "buffer" : 0,
            "byteLength" : 23544,
            "byteOffset" : 23544
        },
        {
            "buffer" : 0,
            "byteLength" : 15696,
            "byteOffset" : 47088
        },
        {
            "buffer" : 0,
            "byteLength" : 3924,
            "byteOffset" : 62784
        },
        {
            "buffer" : 0,
            "byteLength" : 756033,
            "byteOffset" : 66708
        }
    ],
    "buffers" : [
        {
            "byteLength" : 822744,
            "uri" : "data:application/octet-stream;base64,"
        }
    ]
}
