{
    "asset" : {
        "generator" : "Khronos glTF Blender I/O v1.2.75",
        "version" : "2.0"
    },
    "scene" : 0,
    "scenes" : [
        {
            "name" : "Scene",
            "nodes" : [
                0
            ]
        }
    ],
    "nodes" : [
        {
            "mesh" : 0,
            "name" : "node_MeshObject-879405056-PolyPaper15",
            "translation" : [
                0,
                -0.9161365628242493,
                0
            ]
        }
    ],
    "materials" : [
        {
            "emissiveFactor" : [
                0,
                0,
                0
            ],
            "name" : "BlocksPaper.014",
            "pbrMetallicRoughness" : {
                "metallicFactor" : 0,
                "roughnessFactor" : 0.6000000238418579
            }
        }
    ],
    "meshes" : [
        {
            "name" : "mesh_m0-PolyPaper15_-367714",
            "primitives" : [
                {
                    "attributes" : {
                        "POSITION" : 0,
                        "NORMAL" : 1,
                        "COLOR_0" : 2
                    },
                    "indices" : 3,
                    "material" : 0
                }
            ]
        }
    ],
    "accessors" : [
        {
            "bufferView" : 0,
            "componentType" : 5126,
            "count" : 731,
            "max" : [
                0.2399602234363556,
                1.5999417304992676,
                -0.1198883056640625
            ],
            "min" : [
                -3.976374864578247e-05,
                1.2399418354034424,
                -0.4000535011291504
            ],
            "type" : "VEC3"
        },
        {
            "bufferView" : 1,
            "componentType" : 5126,
            "count" : 731,
            "type" : "VEC3"
        },
        {
            "bufferView" : 2,
            "componentType" : 5126,
            "count" : 731,
            "type" : "VEC4"
        },
        {
            "bufferView" : 3,
            "componentType" : 5123,
            "count" : 840,
            "type" : "SCALAR"
        }
    ],
    "bufferViews" : [
        {
            "buffer" : 0,
            "byteLength" : 8772,
            "byteOffset" : 0
        },
        {
            "buffer" : 0,
            "byteLength" : 8772,
            "byteOffset" : 8772
        },
        {
            "buffer" : 0,
            "byteLength" : 11696,
            "byteOffset" : 17544
        },
        {
            "buffer" : 0,
            "byteLength" : 1680,
            "byteOffset" : 29240
        }
    ],
    "buffers" : [
        {
            "byteLength" : 30920,
            "uri" : "data:application/octet-stream;base64,"
        }
    ]
}
