{
    "asset" : {
        "generator" : "Khronos glTF Blender I/O v1.2.75",
        "version" : "2.0"
    },
    "scene" : 0,
    "scenes" : [
        {
            "name" : "Scene",
            "nodes" : [
                3
            ]
        }
    ],
    "nodes" : [
        {
            "mesh" : 0,
            "name" : "node-0",
            "translation" : [
                0,
                142.13394165039062,
                0
            ]
        },
        {
            "children" : [
                0
            ],
            "name" : "Node_3",
            "translation" : [
                -0.6690909266471863,
                8.92357063293457,
                256.16363525390625
            ]
        },
        {
            "children" : [
                1
            ],
            "name" : "Node_2",
            "translation" : [
                0.6690909266471863,
                -8.92357063293457,
                -256.16363525390625
            ]
        },
        {
            "children" : [
                2
            ],
            "name" : "Node_1"
        }
    ],
    "materials" : [
        {
            "doubleSided" : true,
            "emissiveFactor" : [
                0,
                0,
                0
            ],
            "name" : "lambert3SG",
            "pbrMetallicRoughness" : {
                "baseColorTexture" : {
                    "index" : 0,
                    "texCoord" : 0
                },
                "metallicFactor" : 0,
                "roughnessFactor" : 0.9699476361274719
            }
        }
    ],
    "meshes" : [
        {
            "name" : "buffer-0-mesh-0.006",
            "primitives" : [
                {
                    "attributes" : {
                        "POSITION" : 0,
                        "NORMAL" : 1,
                        "TEXCOORD_0" : 2
                    },
                    "indices" : 3,
                    "material" : 0
                }
            ]
        }
    ],
    "textures" : [
        {
            "source" : 0
        }
    ],
    "images" : [
        {
            "bufferView" : 4,
            "mimeType" : "image/png",
            "name" : "Commodore 64 Texture"
        }
    ],
    "accessors" : [
        {
            "bufferView" : 0,
            "componentType" : 5126,
            "count" : 684,
            "max" : [
                107.50001525878906,
                110.52919006347656,
                -149.75
            ],
            "min" : [
                -105,
                -121.8375015258789,
                -360
            ],
            "type" : "VEC3"
        },
        {
            "bufferView" : 1,
            "componentType" : 5126,
            "count" : 684,
            "type" : "VEC3"
        },
        {
            "bufferView" : 2,
            "componentType" : 5126,
            "count" : 684,
            "type" : "VEC2"
        },
        {
            "bufferView" : 3,
            "componentType" : 5123,
            "count" : 684,
            "type" : "SCALAR"
        }
    ],
    "bufferViews" : [
        {
            "buffer" : 0,
            "byteLength" : 8208,
            "byteOffset" : 0
        },
        {
            "buffer" : 0,
            "byteLength" : 8208,
            "byteOffset" : 8208
        },
        {
            "buffer" : 0,
            "byteLength" : 5472,
            "byteOffset" : 16416
        },
        {
            "buffer" : 0,
            "byteLength" : 1368,
            "byteOffset" : 21888
        },
        {
            "buffer" : 0,
            "byteLength" : 45127,
            "byteOffset" : 23256
        }
    ],
    "buffers" : [
        {
            "byteLength" : 68384,
            "uri" : "data:application/octet-stream;base64,"
        }
    ]
}
