{
    "asset" : {
        "generator" : "Khronos glTF Blender I/O v1.2.75",
        "version" : "2.0"
    },
    "scene" : 0,
    "scenes" : [
        {
            "name" : "Scene",
            "nodes" : [
                3
            ]
        }
    ],
    "nodes" : [
        {
            "mesh" : 0,
            "name" : "node-0"
        },
        {
            "children" : [
                0
            ],
            "name" : "Node_3",
            "translation" : [
                0.07605105638504028,
                -9.526755332946777,
                -0.0003675913030747324
            ]
        },
        {
            "children" : [
                1
            ],
            "name" : "Node_2",
            "translation" : [
                -0.07605105638504028,
                9.526755332946777,
                0.0003675913030747324
            ]
        },
        {
            "children" : [
                2
            ],
            "name" : "Node_1"
        }
    ],
    "materials" : [
        {
            "doubleSided" : true,
            "emissiveFactor" : [
                0,
                0,
                0
            ],
            "name" : "QueenPalmTree:QueenPalmTree_mat",
            "pbrMetallicRoughness" : {
                "baseColorFactor" : [
                    0.5,
                    0.5,
                    0.5,
                    1
                ],
                "baseColorTexture" : {
                    "index" : 0,
                    "texCoord" : 0
                },
                "metallicFactor" : 0,
                "roughnessFactor" : 0.9699476361274719
            }
        }
    ],
    "meshes" : [
        {
            "name" : "buffer-0-mesh-0",
            "primitives" : [
                {
                    "attributes" : {
                        "POSITION" : 0,
                        "NORMAL" : 1,
                        "TEXCOORD_0" : 2
                    },
                    "indices" : 3,
                    "material" : 0
                }
            ]
        }
    ],
    "textures" : [
        {
            "source" : 0
        }
    ],
    "images" : [
        {
            "bufferView" : 4,
            "mimeType" : "image/png",
            "name" : "QueenPalmTree_BaseColor"
        }
    ],
    "accessors" : [
        {
            "bufferView" : 0,
            "componentType" : 5126,
            "count" : 11664,
            "max" : [
                5.8766021728515625,
                14.116061210632324,
                4.961585998535156
            ],
            "min" : [
                -4.818428993225098,
                -0.057746000587940216,
                -5.103303909301758
            ],
            "type" : "VEC3"
        },
        {
            "bufferView" : 1,
            "componentType" : 5126,
            "count" : 11664,
            "type" : "VEC3"
        },
        {
            "bufferView" : 2,
            "componentType" : 5126,
            "count" : 11664,
            "type" : "VEC2"
        },
        {
            "bufferView" : 3,
            "componentType" : 5123,
            "count" : 11664,
            "type" : "SCALAR"
        }
    ],
    "bufferViews" : [
        {
            "buffer" : 0,
            "byteLength" : 139968,
            "byteOffset" : 0
        },
        {
            "buffer" : 0,
            "byteLength" : 139968,
            "byteOffset" : 139968
        },
        {
            "buffer" : 0,
            "byteLength" : 93312,
            "byteOffset" : 279936
        },
        {
            "buffer" : 0,
            "byteLength" : 23328,
            "byteOffset" : 373248
        },
        {
            "buffer" : 0,
            "byteLength" : 2393467,
            "byteOffset" : 396576
        }
    ],
    "buffers" : [
        {
            "byteLength" : 2790044,
            "uri" : "data:application/octet-stream;base64,"
        }
    ]
}
