{
    "asset" : {
        "generator" : "Khronos glTF Blender I/O v1.2.75",
        "version" : "2.0"
    },
    "scene" : 0,
    "scenes" : [
        {
            "name" : "Scene",
            "nodes" : [
                3
            ]
        }
    ],
    "nodes" : [
        {
            "mesh" : 0,
            "name" : "node-0"
        },
        {
            "children" : [
                0
            ],
            "name" : "Node_3",
            "translation" : [
                -0.033105187118053436,
                -0.007427234202623367,
                -0.07978498190641403
            ]
        },
        {
            "children" : [
                1
            ],
            "name" : "Node_2",
            "translation" : [
                0.033105187118053436,
                0.007427234202623367,
                0.07978498190641403
            ]
        },
        {
            "children" : [
                2
            ],
            "name" : "Node_1"
        }
    ],
    "materials" : [
        {
            "alphaMode" : "BLEND",
            "doubleSided" : true,
            "emissiveFactor" : [
                0,
                0,
                0
            ],
            "name" : "None.003",
            "pbrMetallicRoughness" : {
                "baseColorFactor" : [
                    0.800000011920929,
                    0.800000011920929,
                    0.800000011920929,
                    1
                ],
                "baseColorTexture" : {
                    "index" : 0,
                    "texCoord" : 0
                },
                "metallicFactor" : 0,
                "roughnessFactor" : 1
            }
        }
    ],
    "meshes" : [
        {
            "name" : "buffer-0-mesh-0.004",
            "primitives" : [
                {
                    "attributes" : {
                        "POSITION" : 0,
                        "NORMAL" : 1,
                        "TEXCOORD_0" : 2
                    },
                    "indices" : 3,
                    "material" : 0
                }
            ]
        }
    ],
    "textures" : [
        {
            "source" : 0
        }
    ],
    "images" : [
        {
            "bufferView" : 4,
            "mimeType" : "image/png",
            "name" : "PUSHILIN_stone"
        }
    ],
    "accessors" : [
        {
            "bufferView" : 0,
            "componentType" : 5126,
            "count" : 585,
            "max" : [
                1.0728859901428223,
                0.6503530144691467,
                0.6255769729614258
            ],
            "min" : [
                -0.9339140057563782,
                -0.3710879981517792,
                -0.6624869704246521
            ],
            "type" : "VEC3"
        },
        {
            "bufferView" : 1,
            "componentType" : 5126,
            "count" : 585,
            "type" : "VEC3"
        },
        {
            "bufferView" : 2,
            "componentType" : 5126,
            "count" : 585,
            "type" : "VEC2"
        },
        {
            "bufferView" : 3,
            "componentType" : 5123,
            "count" : 585,
            "type" : "SCALAR"
        }
    ],
    "bufferViews" : [
        {
            "buffer" : 0,
            "byteLength" : 7020,
            "byteOffset" : 0
        },
        {
            "buffer" : 0,
            "byteLength" : 7020,
            "byteOffset" : 7020
        },
        {
            "buffer" : 0,
            "byteLength" : 4680,
            "byteOffset" : 14040
        },
        {
            "buffer" : 0,
            "byteLength" : 1170,
            "byteOffset" : 18720
        },
        {
            "buffer" : 0,
            "byteLength" : 177061,
            "byteOffset" : 19892
        }
    ],
    "buffers" : [
        {
            "byteLength" : 196956,
            "uri" : "data:application/octet-stream;base64,"
        }
    ]
}
