{
    "asset" : {
        "generator" : "Khronos glTF Blender I/O v1.2.75",
        "version" : "2.0"
    },
    "scene" : 0,
    "scenes" : [
        {
            "name" : "Scene",
            "nodes" : [
                3,
                4,
                5
            ]
        }
    ],
    "nodes" : [
        {
            "mesh" : 0,
            "name" : "node_MeshObject-1463566336-PolyPaper21",
            "translation" : [
                0,
                0.5441535711288452,
                0
            ]
        },
        {
            "children" : [
                0
            ],
            "name" : "Node_3",
            "translation" : [
                2.646601438522339,
                -0.11849260330200195,
                0.14873936772346497
            ]
        },
        {
            "children" : [
                1
            ],
            "name" : "Node_2",
            "translation" : [
                -0.24011144042015076,
                0.11849260330200195,
                2.666623592376709
            ]
        },
        {
            "children" : [
                2
            ],
            "name" : "Node_1",
            "translation" : [
                0,
                0,
                -5.134654998779297
            ]
        },
        {
            "mesh" : 1,
            "name" : "Cube",
            "translation" : [
                0,
                2.9349730014801025,
                0
            ]
        },
        {
            "name" : "Light",
            "rotation" : [
                0.16907575726509094,
                0.7558803558349609,
                -0.27217137813568115,
                0.570947527885437
            ],
            "translation" : [
                4.076245307922363,
                5.903861999511719,
                -1.0054539442062378
            ]
        }
    ],
    "materials" : [
        {
            "emissiveFactor" : [
                0,
                0,
                0
            ],
            "name" : "BlocksPaper",
            "pbrMetallicRoughness" : {
                "baseColorTexture" : {
                    "index" : 0,
                    "texCoord" : 0
                },
                "metallicFactor" : 0,
                "roughnessFactor" : 0.6000000238418579
            }
        },
        {
            "doubleSided" : true,
            "emissiveFactor" : [
                0,
                0,
                0
            ],
            "name" : "Material",
            "pbrMetallicRoughness" : {
                "baseColorTexture" : {
                    "index" : 1,
                    "texCoord" : 0
                },
                "metallicFactor" : 0,
                "roughnessFactor" : 0.4000000059604645
            }
        }
    ],
    "meshes" : [
        {
            "name" : "mesh_m0-PolyPaper21_-34566",
            "primitives" : [
                {
                    "attributes" : {
                        "POSITION" : 0,
                        "NORMAL" : 1,
                        "COLOR_0" : 2
                    },
                    "indices" : 3,
                    "material" : 0
                }
            ]
        },
        {
            "name" : "Cube",
            "primitives" : [
                {
                    "attributes" : {
                        "POSITION" : 4,
                        "NORMAL" : 5,
                        "TEXCOORD_0" : 6
                    },
                    "indices" : 7,
                    "material" : 1
                }
            ]
        }
    ],
    "textures" : [
        {
            "source" : 0
        },
        {
            "source" : 1
        }
    ],
    "images" : [
        {
            "bufferView" : 4,
            "mimeType" : "image/jpeg",
            "name" : "Ima\u0301genes y Texturas para tus Portadas_"
        },
        {
            "bufferView" : 9,
            "mimeType" : "image/jpeg",
            "name" : "_ (12)"
        }
    ],
    "accessors" : [
        {
            "bufferView" : 0,
            "componentType" : 5126,
            "count" : 576,
            "max" : [
                0.45592519640922546,
                0.8576738238334656,
                0.42592355608940125
            ],
            "min" : [
                -0.9370651245117188,
                -0.5111287832260132,
                -0.7314315438270569
            ],
            "type" : "VEC3"
        },
        {
            "bufferView" : 1,
            "componentType" : 5126,
            "count" : 576,
            "type" : "VEC3"
        },
        {
            "bufferView" : 2,
            "componentType" : 5126,
            "count" : 576,
            "type" : "VEC4"
        },
        {
            "bufferView" : 3,
            "componentType" : 5123,
            "count" : 576,
            "type" : "SCALAR"
        },
        {
            "bufferView" : 5,
            "componentType" : 5126,
            "count" : 24,
            "max" : [
                2.515054941177368,
                1.5791163444519043,
                2.331395149230957
            ],
            "min" : [
                -2.041581630706787,
                -1.3178067207336426,
                -3.4412097930908203
            ],
            "type" : "VEC3"
        },
        {
            "bufferView" : 6,
            "componentType" : 5126,
            "count" : 24,
            "type" : "VEC3"
        },
        {
            "bufferView" : 7,
            "componentType" : 5126,
            "count" : 24,
            "type" : "VEC2"
        },
        {
            "bufferView" : 8,
            "componentType" : 5123,
            "count" : 36,
            "type" : "SCALAR"
        }
    ],
    "bufferViews" : [
        {
            "buffer" : 0,
            "byteLength" : 6912,
            "byteOffset" : 0
        },
        {
            "buffer" : 0,
            "byteLength" : 6912,
            "byteOffset" : 6912
        },
        {
            "buffer" : 0,
            "byteLength" : 9216,
            "byteOffset" : 13824
        },
        {
            "buffer" : 0,
            "byteLength" : 1152,
            "byteOffset" : 23040
        },
        {
            "buffer" : 0,
            "byteLength" : 89487,
            "byteOffset" : 24192
        },
        {
            "buffer" : 0,
            "byteLength" : 288,
            "byteOffset" : 113680
        },
        {
            "buffer" : 0,
            "byteLength" : 288,
            "byteOffset" : 113968
        },
        {
            "buffer" : 0,
            "byteLength" : 192,
            "byteOffset" : 114256
        },
        {
            "buffer" : 0,
            "byteLength" : 72,
            "byteOffset" : 114448
        },
        {
            "buffer" : 0,
            "byteLength" : 42906,
            "byteOffset" : 114520
        }
    ],
    "buffers" : [
        {
            "byteLength" : 157428,
            "uri" : "data:application/octet-stream;base64,"
        }
    ]
}
