{
    "asset" : {
        "generator" : "Khronos glTF Blender I/O v1.2.75",
        "version" : "2.0"
    },
    "scene" : 0,
    "scenes" : [
        {
            "name" : "Scene",
            "nodes" : [
                4,
                5
            ]
        }
    ],
    "nodes" : [
        {
            "mesh" : 0,
            "name" : "node_MeshObject-2123437248-PolyGlass24",
            "translation" : [
                0,
                0.0289261844009161,
                0
            ]
        },
        {
            "mesh" : 1,
            "name" : "node_MeshObject1317750592-PolyPaper4"
        },
        {
            "children" : [
                0,
                1
            ],
            "name" : "Node_4",
            "translation" : [
                -0.6019620299339294,
                -4.143418788909912,
                0.7634915709495544
            ]
        },
        {
            "children" : [
                2
            ],
            "name" : "Node_3",
            "translation" : [
                0.6019620299339294,
                1.610924243927002,
                -0.7634915709495544
            ]
        },
        {
            "children" : [
                3
            ],
            "name" : "Node_2"
        },
        {
            "name" : "headLightNode",
            "translation" : [
                -0.2783569395542145,
                0.13917846977710724,
                -0.13917846977710724
            ]
        }
    ],
    "materials" : [
        {
            "alphaMode" : "BLEND",
            "emissiveFactor" : [
                0,
                0,
                0
            ],
            "name" : "BlocksGlass.001",
            "pbrMetallicRoughness" : {
                "metallicFactor" : 1,
                "roughnessFactor" : 0.4000000059604645
            }
        },
        {
            "emissiveFactor" : [
                0,
                0,
                0
            ],
            "name" : "BlocksPaper.007",
            "pbrMetallicRoughness" : {
                "metallicFactor" : 0,
                "roughnessFactor" : 0.6000000238418579
            }
        }
    ],
    "meshes" : [
        {
            "name" : "mesh_m1-PolyGlass24_-482010",
            "primitives" : [
                {
                    "attributes" : {
                        "POSITION" : 0,
                        "NORMAL" : 1,
                        "COLOR_0" : 2
                    },
                    "indices" : 3,
                    "material" : 0
                }
            ]
        },
        {
            "name" : "mesh_m0-PolyPaper4_-481890",
            "primitives" : [
                {
                    "attributes" : {
                        "POSITION" : 4,
                        "NORMAL" : 5,
                        "COLOR_0" : 6
                    },
                    "indices" : 3,
                    "material" : 1
                }
            ]
        }
    ],
    "accessors" : [
        {
            "bufferView" : 0,
            "componentType" : 5126,
            "count" : 576,
            "max" : [
                0.8417506814002991,
                4.3881707191467285,
                -0.5238783955574036
            ],
            "min" : [
                0.3646087050437927,
                3.9011025428771973,
                -1.005540132522583
            ],
            "type" : "VEC3"
        },
        {
            "bufferView" : 1,
            "componentType" : 5126,
            "count" : 576,
            "type" : "VEC3"
        },
        {
            "bufferView" : 2,
            "componentType" : 5126,
            "count" : 576,
            "type" : "VEC4"
        },
        {
            "bufferView" : 3,
            "componentType" : 5123,
            "count" : 576,
            "type" : "SCALAR"
        },
        {
            "bufferView" : 4,
            "componentType" : 5126,
            "count" : 576,
            "max" : [
                0.811914324760437,
                4.348177909851074,
                -0.5382062792778015
            ],
            "min" : [
                0.38448911905288696,
                3.9388344287872314,
                -0.9670701026916504
            ],
            "type" : "VEC3"
        },
        {
            "bufferView" : 5,
            "componentType" : 5126,
            "count" : 576,
            "type" : "VEC3"
        },
        {
            "bufferView" : 6,
            "componentType" : 5126,
            "count" : 576,
            "type" : "VEC4"
        }
    ],
    "bufferViews" : [
        {
            "buffer" : 0,
            "byteLength" : 6912,
            "byteOffset" : 0
        },
        {
            "buffer" : 0,
            "byteLength" : 6912,
            "byteOffset" : 6912
        },
        {
            "buffer" : 0,
            "byteLength" : 9216,
            "byteOffset" : 13824
        },
        {
            "buffer" : 0,
            "byteLength" : 1152,
            "byteOffset" : 23040
        },
        {
            "buffer" : 0,
            "byteLength" : 6912,
            "byteOffset" : 24192
        },
        {
            "buffer" : 0,
            "byteLength" : 6912,
            "byteOffset" : 31104
        },
        {
            "buffer" : 0,
            "byteLength" : 9216,
            "byteOffset" : 38016
        }
    ],
    "buffers" : [
        {
            "byteLength" : 47232,
            "uri" : "data:application/octet-stream;base64,"
        }
    ]
}
