{
    "asset" : {
        "generator" : "Khronos glTF Blender I/O v1.2.75",
        "version" : "2.0"
    },
    "scene" : 0,
    "scenes" : [
        {
            "name" : "Scene",
            "nodes" : [
                1
            ]
        }
    ],
    "nodes" : [
        {
            "mesh" : 0,
            "name" : "node_MeshObject-1363312640-PolyPaper21",
            "translation" : [
                0,
                0.3619564175605774,
                0
            ]
        },
        {
            "children" : [
                0
            ],
            "name" : "Node_3",
            "translation" : [
                -0.5550930500030518,
                -1.2612428665161133,
                -0.32573211193084717
            ]
        }
    ],
    "materials" : [
        {
            "emissiveFactor" : [
                0,
                0,
                0
            ],
            "name" : "BlocksPaper.002",
            "pbrMetallicRoughness" : {
                "metallicFactor" : 0,
                "roughnessFactor" : 0.6000000238418579
            }
        }
    ],
    "meshes" : [
        {
            "name" : "mesh_m0-PolyPaper21_-222574",
            "primitives" : [
                {
                    "attributes" : {
                        "POSITION" : 0,
                        "NORMAL" : 1,
                        "COLOR_0" : 2
                    },
                    "indices" : 3,
                    "material" : 0
                }
            ]
        }
    ],
    "accessors" : [
        {
            "bufferView" : 0,
            "componentType" : 5126,
            "count" : 5505,
            "max" : [
                0.7087140679359436,
                1.4667867422103882,
                0.4856761693954468
            ],
            "min" : [
                0.40596988797187805,
                1.0631405115127563,
                0.1480392962694168
            ],
            "type" : "VEC3"
        },
        {
            "bufferView" : 1,
            "componentType" : 5126,
            "count" : 5505,
            "type" : "VEC3"
        },
        {
            "bufferView" : 2,
            "componentType" : 5126,
            "count" : 5505,
            "type" : "VEC4"
        },
        {
            "bufferView" : 3,
            "componentType" : 5123,
            "count" : 5505,
            "type" : "SCALAR"
        }
    ],
    "bufferViews" : [
        {
            "buffer" : 0,
            "byteLength" : 66060,
            "byteOffset" : 0
        },
        {
            "buffer" : 0,
            "byteLength" : 66060,
            "byteOffset" : 66060
        },
        {
            "buffer" : 0,
            "byteLength" : 88080,
            "byteOffset" : 132120
        },
        {
            "buffer" : 0,
            "byteLength" : 11010,
            "byteOffset" : 220200
        }
    ],
    "buffers" : [
        {
            "byteLength" : 231212,
            "uri" : "data:application/octet-stream;base64,"
        }
    ]
}
